<svg xmlns="http://www.w3.org/2000/svg" fill="none" viewBox="0 0 88 16" id="ReviewStars5Dark" style="width: 100%; height: 100%; filter: none;"><path fill="hsl(200, 20%, 80%)" d="m8 12.173-4.702 2.633 1.05-5.286L.392 5.861l5.351-.634L8 .333l2.257 4.894 5.352.634-3.957 3.659 1.05 5.286L8 12.172ZM26 12.173l-4.702 2.633 1.05-5.286-3.956-3.659 5.351-.634L26 .333l2.257 4.894 5.352.634-3.957 3.659 1.05 5.286L26 12.172ZM44 12.173l-4.702 2.633 1.05-5.286-3.956-3.659 5.351-.634L44 .333l2.257 4.894 5.352.634-3.957 3.659 1.05 5.286L44 12.172ZM62 12.173l-4.702 2.633 1.05-5.286-3.956-3.659 5.351-.634L62 .333l2.257 4.894 5.352.634-3.957 3.659 1.05 5.286L62 12.172ZM80 12.173l-4.702 2.633 1.05-5.286-3.956-3.659 5.351-.634L80 .333l2.257 4.894 5.352.634-3.957 3.659 1.05 5.286L80 12.172Z"/></svg>